<svg width="441" height="441" xmlns="http://www.w3.org/2000/svg" xmlns:xlink="http://www.w3.org/1999/xlink" overflow="hidden"><defs><clipPath id="clip0"><rect x="176" y="96" width="441" height="441"/></clipPath></defs><g clip-path="url(#clip0)" transform="translate(-176 -96)"><path d="M206.277 99.7784 586.721 99.7784C601.404 99.7784 613.222 111.597 613.222 126.277L613.222 506.721C613.222 521.404 601.404 533.223 586.721 533.223L206.277 533.223C191.597 533.223 179.778 521.404 179.778 506.721L179.778 126.277C179.778 111.597 191.597 99.7784 206.277 99.7784Z" fill="#008080"/><path d="M513.973 170.356 513.513 171.276 512.133 174.267 509.833 179.327 509.141 180.937 508.913 181.397 508.221 182.778 506.613 186.228 505.461 188.758 505.232 189.218 504.081 191.518 502.932 193.819 502.012 195.889 501.552 196.809 500.172 199.569 499.02 202.099 498.56 202.79 497.872 204.63 496.26 207.16 495.111 209.92 494.88 210.15 493.731 212.451 492.579 214.751 491.431 216.821 490.739 217.741 489.591 220.271 488.899 221.421 487.979 223.032 487.751 223.492 487.291 224.412 484.99 228.322 483.839 230.162 481.998 233.613 481.998 233.613 481.998 233.613 479.93 236.833 478.55 238.903 476.71 242.123 475.79 243.274 475.329 244.194 474.178 246.034 473.718 246.494 472.337 248.334 471.649 249.484 471.649 249.484 471.417 249.714 469.809 252.014 469.349 252.475 468.889 253.395 467.737 254.545 467.049 255.465 466.589 255.925 466.129 256.615 465.897 257.075 465.668 257.305 464.977 258.225 464.517 258.455 463.597 259.605 463.136 259.835 461.988 260.985 460.836 262.135 460.608 262.596 459.456 263.746 457.388 265.126 456.468 266.046 455.547 266.506 453.707 267.886 453.247 268.116 453.016 268.346 452.095 268.576 451.635 269.036 450.487 269.496 449.567 269.726 447.955 270.416 447.727 270.416 447.727 270.416 447.267 270.416 446.347 270.646 445.427 270.876 445.195 270.876 444.735 270.876 442.894 270.876 442.434 270.876 441.974 270.876 440.134 270.646 439.906 270.646 439.674 270.646 438.754 270.416 438.526 270.416 437.606 270.186 437.146 270.186 435.534 269.496 434.614 269.266 432.313 268.346 431.853 267.886 429.325 266.736 426.793 265.126 424.953 264.206 424.033 263.516 418.744 259.835 418.744 259.835 418.744 259.835 418.744 259.835 415.752 257.765 413.452 256.155 412.763 255.465 411.611 254.545 408.163 252.244 406.551 251.094 404.482 249.484 402.87 248.334 400.57 246.724 397.81 244.654 396.662 244.194 394.13 242.353 392.521 241.433 387.921 238.903 387.461 238.673 387.229 238.443 386.309 237.983 384.009 236.833 381.94 235.913 380.328 235.223 377.108 234.073 376.648 233.843 375.5 233.613 372.279 232.693 371.359 232.463 369.979 232.232 367.907 231.772 366.067 231.542 365.607 231.542 363.998 231.542 363.538 231.542 363.078 231.542 361.466 231.542 360.778 231.542 360.318 231.542 358.938 231.772 358.246 231.772 357.326 232.002 356.638 232.002 355.486 232.232 354.566 232.463 352.957 232.923 351.345 233.613 350.657 233.843 350.425 234.073 349.737 234.303 348.817 234.763 347.665 235.223 346.977 235.683 346.057 236.143 345.365 236.603 345.136 236.833 343.756 237.523 343.064 238.213 342.376 238.673 342.376 238.673 342.144 238.903 340.996 239.823 340.996 240.053 340.764 240.283 339.844 240.973 339.616 241.203 339.156 241.433 338.464 242.353 338.236 242.584 337.084 243.734 336.856 243.964 336.856 244.194 335.704 245.344 335.016 246.264 334.555 246.724 334.555 246.724 334.555 246.954 333.403 248.334 332.715 249.484 331.795 250.634 331.335 251.554 331.103 252.014 330.415 253.165 329.955 254.085 329.495 254.545 329.495 254.775 329.263 255.235 328.115 257.305 327.655 258.455 326.963 259.835 326.735 260.525 326.043 261.905 325.354 263.976 324.894 265.126 323.974 267.196 323.282 269.726 323.054 270.416 322.594 272.026 321.442 275.707 320.982 277.777 320.062 280.997 318.914 286.058 318.914 286.288 318.914 286.288 318.682 287.208 317.994 291.578 317.534 295.489 317.302 296.869 317.302 298.249 316.614 305.15 316.614 307.22 316.382 309.75 316.154 315.271 316.154 317.801 316.154 320.331 316.382 326.082 316.614 328.382 316.614 330.452 317.302 337.353 317.302 338.963 317.534 340.113 317.994 344.254 318.682 348.394 318.914 349.314 318.914 349.544 318.914 349.774 320.062 354.605 320.982 357.825 321.442 359.895 322.594 363.806 323.054 365.186 323.282 366.106 323.974 368.406 324.434 370.016 324.663 370.476 325.354 371.856 326.043 373.697 326.735 375.077 326.963 375.767 327.655 377.377 328.115 378.527 329.263 380.597 329.495 380.827 329.495 381.057 329.955 381.747 330.415 382.438 331.103 383.588 331.335 384.278 331.795 384.968 332.715 386.348 333.403 387.268 334.555 388.878 334.555 388.878 334.555 388.878 335.016 389.568 335.704 390.258 336.856 391.638 337.084 392.098 338.236 393.249 339.384 394.169 339.844 394.629 340.996 395.779 342.144 396.929 342.376 396.929 343.064 397.619 343.756 398.079 345.136 398.999 346.057 399.459 346.977 400.149 347.665 400.379 348.817 401.069 349.737 401.529 350.425 401.759 350.657 401.759 351.345 402.219 352.957 402.68 354.566 403.14 355.486 403.37 356.638 403.6 357.326 403.83 358.246 403.83 358.938 404.06 360.318 404.06 360.778 404.06 361.466 404.29 363.078 404.29 363.538 404.29 363.998 404.29 365.607 404.06 366.067 404.06 367.907 403.83 369.979 403.6 371.359 403.14 372.279 403.14 375.5 402.219 376.648 401.759 377.108 401.529 380.328 400.379 381.94 399.689 384.009 398.769 386.309 397.619 387.229 397.159 387.461 397.159 387.921 396.929 392.521 394.169 394.13 393.249 396.662 391.638 397.81 390.948 400.57 389.108 402.87 387.268 404.482 386.348 406.551 384.738 408.163 383.588 411.611 381.057 412.763 380.137 413.452 379.677 415.752 378.067 418.744 375.767 418.744 375.767 418.744 375.767 418.744 375.767 424.033 372.086 424.953 371.626 426.793 370.476 429.325 368.866 431.853 367.716 432.313 367.486 434.614 366.566 435.534 366.106 437.146 365.646 438.986 365.186 439.674 365.186 439.906 364.956 440.134 364.956 441.974 364.726 442.434 364.726 442.894 364.726 444.735 364.956 445.195 364.956 445.427 364.956 447.267 365.186 447.727 365.416 447.727 365.416 447.955 365.416 449.567 365.876 450.487 366.106 451.635 366.796 452.095 367.026 453.016 367.486 453.247 367.716 453.707 367.946 455.547 369.096 456.468 369.786 457.388 370.476 458.308 371.166 459.456 372.086 460.608 373.237 460.836 373.467 461.988 374.617 462.216 374.847 463.136 375.767 463.368 375.997 463.597 376.227 464.517 377.147 464.517 377.377 465.437 378.527 465.897 378.757 466.129 379.217 467.049 380.137 467.737 381.057 468.889 382.438 469.349 383.128 469.809 383.588 471.417 385.888 471.649 386.118 471.649 386.348 472.337 387.268 473.718 389.338 474.178 389.568 475.329 391.638 475.79 392.328 476.71 393.479 478.55 396.929 479.93 398.769 481.998 401.989 481.998 402.219 481.998 402.219 483.839 405.44 484.99 407.28 487.291 411.19 487.751 412.11 487.979 412.57 488.899 414.411 489.591 415.561 490.739 417.861 491.431 419.011 492.579 420.851 493.731 423.152 495.111 425.912 496.26 428.442 497.872 431.202 498.56 432.813 499.02 433.733 500.4 436.263 500.4 436.493 501.552 439.023 502.012 439.943 502.932 441.783 504.081 444.314 505.232 446.384 505.461 447.074 506.613 449.604 508.221 452.825 508.913 454.205 509.141 454.665 509.833 456.275 512.133 461.335 513.513 464.326 513.973 465.246" stroke="#FFFFFF" stroke-width="3.77841" fill="none"/><path d="M218.829 317.384 218.829 320.034 568.611 320.034 568.611 317.384Z" fill="#B3B3B3" fill-rule="evenodd"/><path d="M218.84 318.722 224.14 313.422 205.591 318.722 224.14 324.022Z" fill="#B3B3B3" fill-rule="evenodd"/><path d="M568.622 318.722 563.322 324.022 581.871 318.722 563.322 313.422Z" fill="#B3B3B3" fill-rule="evenodd"/><path d="M394.216 129.161 394.216 506.436 396.866 506.436 396.866 129.161Z" fill="#B3B3B3" fill-rule="evenodd"/><path d="M395.554 129.185 400.854 134.485 395.554 115.936 390.254 134.485Z" fill="#B3B3B3" fill-rule="evenodd"/><path d="M395.554 506.412 390.254 501.112 395.554 519.661 400.854 501.112Z" fill="#B3B3B3" fill-rule="evenodd"/><path d="M494.558 209.764 280.651 384.656 281.286 385.431 495.193 210.539Z" fill="#B3B3B3"/><path d="M494.38 218.148 495.378 218.148 495.378 210.148 494.38 210.148ZM494.38 230.147 495.378 230.147 495.378 222.148 494.38 222.148ZM494.38 242.139 495.378 242.139 495.378 234.14 494.38 234.14ZM494.38 254.139 495.378 254.139 495.378 246.139 494.38 246.139ZM494.38 266.13 495.378 266.13 495.378 258.138 494.38 258.138ZM494.38 278.131 495.378 278.131 495.378 270.129 494.38 270.129ZM494.38 290.128 495.378 290.128 495.378 282.129 494.38 282.129ZM494.38 302.121 495.378 302.121 495.378 294.122 494.38 294.122ZM494.38 314.121 495.378 314.121 495.378 306.122 494.38 306.122ZM494.38 326.113 495.378 326.113 495.378 318.122 494.38 318.122ZM494.38 338.114 495.378 338.114 495.378 330.111 494.38 330.111ZM494.38 350.11 495.378 350.11 495.378 342.111 494.38 342.111ZM494.38 362.103 495.378 362.103 495.378 354.104 494.38 354.104ZM494.38 374.103 495.378 374.103 495.378 366.104 494.38 366.104ZM494.38 386.096 495.378 386.096 495.378 378.104 494.38 378.104ZM494.38 398.096 495.378 398.096 495.378 390.093 494.38 390.093ZM494.38 410.092 495.378 410.092 495.378 402.093 494.38 402.093ZM494.38 422.085 495.378 422.085 495.378 414.086 494.38 414.086Z" fill="#CCCCCC"/><path d="M296.764 346.777C296.764 346.12 296.631 345.674 296.364 345.444 296.098 345.194 295.618 345.051 294.925 345.017L295.005 344.242C295.236 344.208 296.32 343.906 298.257 343.335L298.737 343.604 298.977 345.228C299.706 343.985 300.869 343.366 302.469 343.366 305.722 343.366 307.347 345.425 307.347 349.547 307.347 351.716 306.832 353.378 305.801 354.535 304.771 355.672 303.278 356.239 301.323 356.239 300.487 356.239 299.732 356.099 299.057 355.812L299.057 360.025C299.501 360.365 300.114 360.603 300.896 360.746L300.816 361.653 294.925 361.653 295.031 360.693C295.724 360.603 296.302 360.38 296.764 360.025ZM302.256 344.51C300.123 344.51 299.057 346.18 299.057 349.521L299.057 354.587C299.697 354.943 300.532 355.12 301.563 355.12 302.593 355.12 303.42 354.633 304.042 353.654 304.682 352.676 305.002 351.315 305.002 349.574 305.002 347.832 304.78 346.555 304.335 345.735 303.891 344.918 303.198 344.51 302.256 344.51Z" fill="#FFFFFF"/><path d="M428.565 248.272C425.206 248.272 423.526 246.148 423.526 241.9 423.526 239.91 423.97 238.328 424.859 237.155 425.748 235.982 427.143 235.396 429.045 235.396 430.111 235.396 431.106 235.813 432.031 236.649L432.457 235.636 433.87 235.636 433.87 252.111C434.314 252.431 434.936 252.671 435.736 252.831L435.63 253.737 429.738 253.737 429.844 252.777C430.556 252.653 431.142 252.431 431.604 252.111L431.604 246.512C430.857 247.685 429.844 248.272 428.565 248.272ZM426.326 238.382C426.148 238.986 426.032 239.537 425.979 240.034 425.944 240.514 425.925 241.145 425.925 241.927 425.925 242.709 425.952 243.367 426.006 243.9 426.059 244.433 426.174 244.975 426.352 245.526 426.69 246.61 427.427 247.152 428.565 247.152 429.72 247.152 430.511 246.655 430.938 245.659 431.382 244.664 431.604 243.34 431.604 241.687L431.604 237.875C430.733 236.968 429.907 236.515 429.125 236.515 428.343 236.515 427.73 236.675 427.285 236.995 426.841 237.298 426.521 237.76 426.326 238.382Z" fill="#FFFFFF"/><path d="M510.408 205.405C511.047 205.405 511.598 205.591 512.059 205.964 512.539 206.338 512.781 206.809 512.781 207.377 512.781 207.946 512.645 208.399 512.381 208.737 512.131 209.075 511.821 209.244 511.447 209.244 511.092 209.244 510.779 209.173 510.514 209.03 510.246 208.87 510.08 208.666 510.008 208.417 510.185 208.239 510.272 207.991 510.272 207.671 510.272 207.138 510.027 206.871 509.528 206.871 509.029 206.871 508.523 207.235 508.009 207.964 507.51 208.675 507.261 209.439 507.261 210.257L507.261 216.441C507.741 216.761 508.443 217.01 509.365 217.188L509.26 218.094 503.127 218.094 503.237 217.134C503.966 217.01 504.552 216.779 504.994 216.441L504.994 208.844C504.994 208.186 504.854 207.742 504.567 207.511 504.302 207.262 503.823 207.12 503.127 207.084L503.21 206.311C503.441 206.276 504.525 205.973 506.46 205.405L506.94 205.645 507.208 207.511C508.149 206.107 509.218 205.405 510.408 205.405Z" fill="#FFFFFF"/><path d="M510.408 413.342C511.047 413.342 511.598 413.531 512.059 413.901 512.539 414.275 512.781 414.747 512.781 415.314 512.781 415.884 512.645 416.338 512.381 416.674 512.131 417.014 511.821 417.18 511.447 417.18 511.092 417.18 510.779 417.109 510.514 416.969 510.246 416.81 510.08 416.602 510.008 416.357 510.185 416.179 510.272 415.93 510.272 415.609 510.272 415.076 510.027 414.808 509.528 414.808 509.029 414.808 508.523 415.174 508.009 415.903 507.51 416.614 507.261 417.377 507.261 418.193L507.261 424.378C507.741 424.699 508.443 424.949 509.365 425.126L509.26 426.033 503.127 426.033 503.237 425.074C503.966 424.949 504.552 424.718 504.994 424.378L504.994 416.78C504.994 416.122 504.854 415.68 504.567 415.45 504.302 415.201 503.823 415.057 503.127 415.023L503.21 414.248C503.441 414.214 504.525 413.912 506.46 413.342L506.94 413.583 507.208 415.45C508.149 414.044 509.218 413.342 510.408 413.342Z" fill="#FFFFFF"/><path d="M515.528 413.583C515.101 411.237 514.886 409.843 514.886 409.397 514.886 408.951 514.995 408.622 515.207 408.411 515.437 408.18 515.732 408.063 516.087 408.063 516.461 408.063 516.764 408.18 516.994 408.411 517.224 408.622 517.342 408.883 517.342 409.185 517.342 409.699 517.179 410.863 516.862 412.677L516.699 413.583Z" fill="#FFFFFF"/></g></svg>