<svg xmlns="http://www.w3.org/2000/svg" viewBox="0 0 92.3 94.59"><defs><style>.cls-1,.cls-2{fill:none;stroke:#fff;stroke-linecap:round;stroke-miterlimit:10;}.cls-1{stroke-width:2px;}.cls-2{stroke-width:1.73px;}</style></defs><g id="Ebene_2" data-name="Ebene 2"><g id="Ebene_1-2" data-name="Ebene 1"><path class="cls-1" d="M46.89,93.46C53.45,90,74.11,78,84.91,52.39a82.72,82.72,0,0,0,5.88-41.15,68.07,68.07,0,0,1-22.5-2.68C56.7,5.12,54.1.84,45.79,1S35.39,5.38,24.46,8.77A61.71,61.71,0,0,1,1.39,11.24a82.94,82.94,0,0,0,5,37.68C17.18,76.83,40.08,89.9,46.89,93.46Z"/><path class="cls-2" d="M54,58.13,48.78,43.57a7.75,7.75,0,1,0-5.26,0L38.26,58.13Z"/></g></g></svg>