<svg xmlns="http://www.w3.org/2000/svg" viewBox="0 0 91.3 93.52"><defs><style>.cls-1{fill:none;stroke:#c40233;stroke-miterlimit:10;}</style></defs><g id="Ebene_2"><g id="Ebene_1-2"><path class="cls-1" d="M46.39,93c6.56-3.48,27.22-15.49,38-41.07a82.72,82.72,0,0,0,5.88-41.15,68.07,68.07,0,0,1-22.5-2.68C56.2,4.62,53.6.34,45.29.5S34.89,4.88,24,8.27A61.71,61.71,0,0,1,.89,10.74a82.94,82.94,0,0,0,5,37.68C16.68,76.33,39.58,89.4,46.39,93Z"/><path class="cls-1" d="M53.54,57.63,48.28,43.07a7.75,7.75,0,1,0-5.26,0L37.76,57.63Z"/></g></g></svg>